<svg viewBox="0 0 200 200" xml:space="preserve" xmlns="http://www.w3.org/2000/svg"><g fill="#6d1000" class="fill-1d1d1b"><path d="M164.397 68.094H128.902V58.86a3.5 3.5 0 0 0-3.5-3.5H74.598a3.5 3.5 0 0 0-3.5 3.5v9.234H35.603a3.5 3.5 0 1 0 0 7h13.426v25.545c0 14.221 10.681 25.987 24.441 27.716l-23.156 58.541h-4.753a3.5 3.5 0 1 0 0 7h7.121l.01.001.013-.001h7.853a3.5 3.5 0 1 0 0-7h-2.717l5.097-12.885h74.815l5.096 12.885h-2.917a3.5 3.5 0 1 0 0 7h8.053l.013.001.01-.001h6.922a3.5 3.5 0 1 0 0-7h-4.554l-23.164-58.562c13.777-1.809 24.449-13.618 24.449-27.881V75.094h12.733a3.5 3.5 0 0 0 .003-7zM78.098 62.36h43.805v5.734H78.098V62.36zm41.687 66.222 6.182 15.628h-51.24l6.182-15.628h38.876zm-54.078 38.429 6.25-15.8h56.778l6.25 15.8H65.707zm78.957-66.558c0 11.651-9.479 21.129-21.13 21.129h-.482a3.458 3.458 0 0 0-1.877 0h-41.66a3.451 3.451 0 0 0-1.875 0h-.669c-11.548 0-20.943-9.395-20.943-20.943V75.094h88.636v25.359zM69.603 45.393a3.5 3.5 0 0 0 2.475-5.975c-4.252-4.252-3.564-6.334-2.224-8.381 7.849-9.9 5.834-18.095 2.75-23.233a3.5 3.5 0 1 0-6.002 3.602c1.839 3.065 3.6 7.994-2.314 15.386a3.583 3.583 0 0 0-.18.245c-3.853 5.778-2.864 11.447 3.021 17.332a3.49 3.49 0 0 0 2.474 1.024zM90.268 45.393a3.5 3.5 0 0 0 2.475-5.975c-4.252-4.252-3.564-6.334-2.224-8.381 7.848-9.901 5.834-18.095 2.75-23.233a3.5 3.5 0 1 0-6.002 3.602c1.839 3.064 3.6 7.993-2.315 15.386a3.57 3.57 0 0 0-.179.245c-3.853 5.778-2.864 11.447 3.021 17.332a3.49 3.49 0 0 0 2.474 1.024zM110.933 45.393a3.5 3.5 0 0 0 2.475-5.975c-4.252-4.252-3.564-6.334-2.224-8.381 7.848-9.901 5.834-18.095 2.75-23.233a3.5 3.5 0 1 0-6.002 3.602c1.839 3.064 3.6 7.993-2.315 15.386a3.57 3.57 0 0 0-.179.245c-3.853 5.778-2.864 11.447 3.021 17.332a3.49 3.49 0 0 0 2.474 1.024zM131.598 45.393a3.5 3.5 0 0 0 2.475-5.975c-4.252-4.252-3.564-6.334-2.224-8.381 7.848-9.901 5.834-18.095 2.75-23.233a3.5 3.5 0 1 0-6.002 3.602c1.839 3.064 3.6 7.993-2.315 15.386a3.57 3.57 0 0 0-.179.245c-3.853 5.778-2.864 11.447 3.021 17.332a3.49 3.49 0 0 0 2.474 1.024z"></path><path d="M77.585 110.052c-5.74 0-10.41-4.67-10.41-10.411a3.5 3.5 0 1 0-7 0c0 9.6 7.811 17.411 17.41 17.411a3.5 3.5 0 1 0 0-7z"></path></g></svg>